<svg xmlns="http://www.w3.org/2000/svg"  viewBox="0 0 100 100" width="100px" height="100px"><path d="M52,100c-1.012,0-2.023-0.239-2.925-0.692 c-18.758-9.443-25.582-21.396-26.299-22.727c-1.46-2.705-0.804-6.104,1.564-8.075l2.509-2.091l-4.12-5.036 c-1.659-2.029-2.194-5.281-2.744-7.834c-3.497-2.513-5.896-5.292-7.047-7.625l-0.264-0.532c-0.528-1.058-1.045-1.403-1.299-1.448 C11.101,43.976,13.293,42,13,42c-1.533,0,0.168-1.019-1-2c-1.474-1.232-8-0.575-8-2.5C4,31.672,8.128,23,19.5,23 c0.667,0,1.37,0.036,2.105,0.108c0.212-0.33,0.436-0.653,0.671-0.97C24.128,18.994,31.965,7,43.716,7h16.575 c10.813,0,17.84,12.1,19.754,15.011c0.279,0.365,2.108,0.711,2.355,1.096C83.134,23.036,83.834,23,84.5,23 c11.372,0,15.5,8.672,15.5,14.5c0,1.955-0.867,3.786-2.378,5.026C96.457,43.478,94.995,44,93.499,44l0,0 c-0.294,0-0.588-0.021-0.879-0.061c-0.251,0.047-0.77,0.395-1.306,1.467l-0.26,0.522c-1.142,2.32-2.92,5.935-6.415,8.447 c-0.549,2.556-1.701,4.974-3.363,7.004l-4.126,5.037l2.507,2.091c2.364,1.973,3.02,5.37,1.558,8.079 c-0.714,1.325-7.538,13.278-26.292,22.719C54.018,99.761,53.008,100,52,100z" opacity=".35"/><path fill="#f2f2f2" d="M50,98c-1.012,0-2.023-0.239-2.925-0.692c-18.758-9.443-25.582-21.396-26.299-22.727 c-1.46-2.705-0.804-6.104,1.564-8.075l2.509-2.091l-4.12-5.036c-1.659-2.029-2.812-4.444-3.361-6.997 c-3.497-2.513-5.278-6.129-6.429-8.462l-0.264-0.532c-0.528-1.058-1.045-1.403-1.299-1.448c-0.276,0.037-0.57,0.057-0.863,0.057 c-1.533,0-3.021-0.541-4.188-1.522C2.852,39.241,2,37.425,2,35.5C2,29.672,6.128,21,17.5,21c0.667,0,1.37,0.036,2.105,0.108 c0.212-0.33,0.436-0.653,0.671-0.97C22.128,16.994,29.965,5,41.716,5h16.575c10.813,0,19.406,12.071,21.32,14.982 c0.279,0.365,0.542,0.74,0.789,1.125C81.134,21.036,81.834,21,82.5,21C93.872,21,98,29.672,98,35.5 c0,1.955-0.867,3.786-2.378,5.026C94.457,41.478,92.995,42,91.499,42l0,0c-0.294,0-0.588-0.021-0.879-0.061 c-0.251,0.047-0.77,0.395-1.306,1.467l-0.26,0.522c-1.142,2.32-2.92,5.935-6.415,8.447c-0.549,2.556-1.701,4.974-3.363,7.004 l-4.126,5.037l2.507,2.091c2.364,1.973,3.02,5.37,1.558,8.079c-0.714,1.325-7.538,13.278-26.292,22.719 C52.018,97.761,51.008,98,50,98z"/><polygon fill="#739f4d" points="9,35 11,30 17,28 23.622,28.485 27,29 26,50 22,48 18,42 14,37"/><polygon fill="#739f4d" points="91,35 89,30 83,28 76.378,28.485 73,29 74,50 78,48 82,42 86,37"/><polyline fill="#96c362" points="25,28 25,49 25,54 33,63 33,71 50,87 63,75 69,66 66,63 76,52 75,48 75,29 74,24 66,15 58.291,11.5 41,11 34,14 30,19 26,24 25,28"/><path fill="#739f4d" d="M33,62c0,0,5.419,3.419,7,5c1,1,3,2,5,2c4,0,5,0,5,0v18L36,76l-3-6V62z"/><path fill="#739f4d" d="M67,62c0,0-5.419,3.419-7,5c-1,1-3,2-5,2c-4,0-5,0-5,0l-2,6.169L50,87l14-11l3-6V62z"/><path fill="#ff7575" d="M66,66c0,0-0.17,1.924-1,4c-2,5-15,14-15,16c0-2-13-11-15-16c-0.83-2.076-1-4-1-4l-7.5,5.5L31,77 l8,8l11,6l11-6l8-8l4.5-5.5L66,66z"/><path fill="#96c362" d="M10.217,34c0,0,6-6,17,3V26l-5.927,1.91L13.217,28l-3.958,3.18L10.217,34z"/><path fill="#96c362" d="M89.891,34.09c0,0-6-6-17,3v-11L78.818,28l8.073,0.09l2.895,4.229L89.891,34.09z"/><path fill="none" stroke="#40396e" stroke-linecap="round" stroke-linejoin="round" stroke-miterlimit="10" stroke-width="3" d="M82.5,27.5c-1.914,0-4.12,0.441-6.115,0.983c-0.265-1.719-0.856-3.011-2.069-4.722c0,0-7.816-12.261-16.025-12.261h-8.284h-0.008 h-8.282c-9.216,0-16.025,12.261-16.025,12.261c-0.877,1.61-1.804,3.004-2.069,4.724C21.625,27.941,19.417,27.5,17.5,27.5 c-9,0-9,8-9,8s5.174-0.623,8,5c1.261,2.509,2.992,6.555,7,7.756v0.674c0,2.308,0.799,4.546,2.26,6.332l6.643,8.12L32.5,66.5l-6,5 c0,0,6.051,11.219,23.494,20H50c17.444-8.781,23.494-20,23.494-20l-5.995-5v-3l6.747-8.237c1.462-1.787,2.26-4.024,2.26-6.332 v-0.677c4.003-1.203,5.671-5.279,6.993-7.754c2.949-5.522,8-5,8-5S91.5,27.5,82.5,27.5z"/><path fill="#fff" d="M32,38c0,0,2-4,6-4c5,0,6,4,6,4s-2,1-6,1C33,39,32,38,32,38z"/><path fill="#40396e" d="M41,36c0-0.581-0.173-1.119-0.459-1.578C39.837,34.165,39.002,34,38,34 c-1.018,0-1.905,0.26-2.663,0.647C35.128,35.055,35,35.51,35,36c0,1.657,1.343,3,3,3S41,37.657,41,36z"/><path fill="#fff" d="M68.112,38c0,0-2-4-6-4c-5,0-6,4-6,4s2,1,6,1C67.112,39,68.112,38,68.112,38z"/><path fill="#40396e" d="M59.112,36c0-0.581,0.173-1.119,0.459-1.578C60.276,34.165,61.111,34,62.112,34 c1.018,0,1.905,0.26,2.663,0.647c0.208,0.408,0.337,0.864,0.337,1.353c0,1.657-1.343,3-3,3S59.112,37.657,59.112,36z"/><path fill="#40396e" d="M62.06,26c-4.321,0-6.412,1.391-8.092,2.509C52.667,29.374,51.727,30,49.867,30 s-2.8-0.626-4.101-1.491C44.086,27.391,41.995,26,37.674,26C29.71,26,27,34,26.827,34.836C27.046,34.945,30.041,29,37.674,29 c3.388,0,4.843,0.969,6.384,1.994C45.471,31.934,47.073,33,49.867,33s4.396-1.065,5.809-2.006C57.217,29.969,58.672,29,62.06,29 c8.192,0,10.624,5.949,10.843,5.842C73,34,70.023,26,62.06,26z" opacity=".35"/><path fill="#40396e" d="M44,44c0,0,1-3,3-3c1.031,0,0.999,0.266,1.822,0.523c0.764,0.239,1.592,0.239,2.357,0 C52.001,41.266,51.969,41,53,41c2,0,3,3,3,3s-1.267-1.133-2.551-1.292c-0.755-0.094-1.603,0.677-1.968,0.799L51.14,43.62 c-0.742,0.247-1.542,0.259-2.291,0.033l-0.616-0.186c-0.449-0.135-1.34-0.851-2.189-0.708C44.99,42.937,44,44,44,44z" opacity=".35"/><path fill="#40396e" d="M59,52c0,0-2-1-7-1c-2,1-2,1-2,1s0,0-2-1c-5,0-7,1-7,1c-4,4-4,10-4,10c2-7,6-9,6-9l7,1 l7-1c0,0,4,2,6,9C63,62,63,56,59,52z" opacity=".35"/><g opacity=".35"><path fill="#40396e" d="M31,39c0,0,1,5.5,6,5.5c0.255,0,0.484-0.023,0.721-0.039C35.902,46.705,32.707,51.347,32,57 c0,0,2.876-7.636,9.445-13.762c2.268-1.63,2.498-4.26,2.498-4.26S41.409,42,37,42C32.673,42,31,39,31,39z"/><path fill="#40396e" d="M69,39.016c0,0-1.673,2.984-6,2.984c-4.409,0-7.066-3.022-7.066-3.022s0.238,2.678,2.567,4.304 C65.036,49.4,67.899,57,67.899,57c-0.706-5.651-3.901-10.293-5.72-12.538c0.229,0.015,0.451,0.038,0.697,0.038 C68,44.5,69,39.016,69,39.016z"/></g><path fill="#40396e" d="M60.303,19.573C58.303,19.573,57,22,54,22c-0.92,0-1.84-0.212-2.566-0.44 c-0.937-0.295-1.932-0.295-2.869,0C47.84,21.788,46.92,22,46,22c-3,0-4.303-2.427-6.303-2.427C37,19.573,35,21,35,21s2-3,5-3 s4,2,6,2c0.902,0,1.805-0.204,2.524-0.427c0.965-0.3,1.988-0.3,2.953,0C52.195,19.796,53.098,20,54,20c2,0,3-2,6-2s5,3,5,3 S62.303,19.573,60.303,19.573z" opacity=".35"/><path fill="#40396e" d="M50,58c-4,0-7-2-7-2l1,4c2-1,10-1,12,0l1-4C57,56,54,58,50,58z" opacity=".35"/></svg>
